<svg width="1440" height="580" fill="none" xmlns="http://www.w3.org/2000/svg"><path d="M-10.193 371.917l-18.56-373.56L1651.49-85.123s25.4 499.374 28.49 561.634c-141.62 33.595-352.14 57.777-802.595-26.964-468.668-88.166-693.3-87.282-887.578-77.629z" fill="#77B162"/><path d="M-10.194 371.917c194.279-9.653 418.911-10.537 887.579 77.629 450.455 84.741 660.975 60.559 802.595 26.964-.57-11.411-1.39-27.519-2.38-46.793l-1.78.422c-141.5 33.571-340.56 80.797-795.439 9.078-473.217-74.611-652.649-81.335-890.684-69.508l.11 2.208z" fill="#fff" fill-opacity=".2"/><path d="M-9.939 365.264l-9.456-190.312L1660.85 91.471l12.35 248.597c-158.7 42.855-326.63 109.806-836.58 65.911-479.295-41.256-671.533-49.411-846.559-40.715z" fill="url(#paint0_linear)" fill-opacity=".05"/><defs><linearGradient id="paint0_linear" x1="819.171" y1="101.861" x2="835.884" y2="438.251" gradientUnits="userSpaceOnUse"><stop stop-opacity="0"/><stop offset="1"/></linearGradient></defs></svg>